<svg width="28" height="24" viewBox="0 0 28 24" fill="none" xmlns="http://www.w3.org/2000/svg">
<path fill-rule="evenodd" clip-rule="evenodd" d="M4.27423 15.2031C3.61381 14.5295 3.48611 13.1925 3.93307 11.6256C4.39372 10.0114 5.4108 8.34405 6.7973 6.93168C8.32519 5.37416 10.1787 4.26044 11.8827 3.87711C13.198 3.58403 14.32 3.75709 14.9111 4.36C15.5724 5.03455 15.7001 6.37157 15.2532 7.93839C14.7934 9.55267 13.7764 11.22 12.3898 12.6324C10.861 14.1899 9.0075 15.3036 7.30447 15.6869C6.8794 15.7818 6.47804 15.8283 6.10861 15.8283C5.31958 15.8283 4.68015 15.6153 4.27423 15.2031ZM17.9666 10.7741L21.8234 9.46685C21.5269 6.91745 20.409 4.55761 18.6008 2.71409L17.4086 1.5613C14.3957 -1.32021 8.67729 -0.115317 4.28152 4.36837C-0.100562 8.83811 -1.28639 14.6486 1.50487 17.7273L2.65968 18.9741C4.85711 21.2164 7.74414 22.3366 10.6303 22.3366C12.7625 22.3366 14.8953 21.7247 16.7501 20.5011C16.1722 19.539 15.7864 18.4259 15.7864 17.1684V13.85C15.7858 13.1694 15.996 12.5058 16.3874 11.9537C16.7788 11.4015 17.3314 10.9888 17.9666 10.7741ZM2.93059 16.5727C5.11069 18.7945 9.99721 17.5599 13.6067 13.8791C17.2152 10.1975 18.4248 5.21133 16.2483 2.98949C15.5113 2.23864 14.465 1.88229 13.2637 1.88229C10.9112 1.88229 7.96215 3.24629 5.57225 5.68306C1.96369 9.36473 0.754146 14.3508 2.93059 16.5727ZM26.0422 11.9338L22.7394 10.7808C22.6313 10.743 22.5144 10.743 22.4062 10.7808L19.1029 11.9338C18.5779 12.1166 18.1212 12.4679 17.7977 12.9378C17.4742 13.4078 17.3004 13.9725 17.301 14.5518V17.3763C17.301 21.5508 22.1511 23.8564 22.3588 23.9525C22.4262 23.9838 22.4991 24 22.5728 24C22.6466 24 22.7195 23.9838 22.7869 23.9525C22.9946 23.8564 27.8447 21.5508 27.8447 17.3763V14.5518C27.8452 13.9725 27.6713 13.4077 27.3477 12.9377C27.0241 12.4677 26.5673 12.1165 26.0422 11.9338ZM23.0238 17.4347C23.3928 17.2691 23.6505 16.893 23.6505 16.4554C23.6505 15.8649 23.181 15.3861 22.6019 15.3861C22.0228 15.3861 21.5534 15.8649 21.5534 16.4554C21.5534 16.8985 21.8176 17.2786 22.1941 17.4409L21.8824 18.8912C21.8267 19.1506 22.0203 19.396 22.2807 19.396H22.9775C23.2422 19.396 23.4368 19.1428 23.3734 18.8806L23.0238 17.4347Z" fill="white"/>
</svg>
