<svg width="24" height="24" viewBox="0 0 24 24" fill="none" xmlns="http://www.w3.org/2000/svg">
<path d="M2.238 5.53801L1.56 6.21601V12.006V17.796L2.268 18.498L2.982 19.2H12H21.018L21.732 18.498L22.44 17.796V12.006V6.21601L21.762 5.53801L21.084 4.86001H12H2.916L2.238 5.53801ZM21.492 5.80201L22.08 6.39001V12.03V17.676L21.486 18.258L20.898 18.84H12H3.102L2.514 18.258L1.92 17.676V12.036V6.39001L2.502 5.80801L3.09 5.22001H12H20.91L21.492 5.80201Z" fill="white"/>
<path d="M4.05 6.11402C3.984 6.14402 3.72 6.38402 3.468 6.64802L3 7.12802V8.83202V10.536L3.534 11.058L4.062 11.58H4.944C5.592 11.58 5.868 11.556 5.988 11.496C6.18 11.394 6.858 10.704 6.96 10.512C7.122 10.188 6.846 9.78002 6.462 9.78002C6.258 9.78002 6.18 9.82802 5.856 10.14L5.478 10.5H4.974C4.476 10.5 4.458 10.494 4.272 10.302L4.08 10.104V8.81402V7.53002L4.29 7.33202C4.494 7.14602 4.524 7.14002 4.986 7.14002H5.472L5.838 7.49402C6.042 7.68602 6.27 7.86602 6.342 7.88402C6.552 7.95002 6.882 7.76402 6.96 7.53602C7.05 7.24802 6.978 7.11602 6.426 6.57002L5.94 6.09002L5.052 6.07802C4.566 6.07202 4.116 6.08402 4.05 6.11402Z" fill="white"/>
<path d="M8.72999 6.12C8.66399 6.144 8.39999 6.384 8.14799 6.648L7.67999 7.128V8.826V10.524L8.21399 11.058L8.74799 11.586L9.71399 11.568L10.68 11.55L11.172 11.052L11.67 10.56L11.688 8.958C11.7 8.07 11.688 7.284 11.67 7.206C11.628 7.032 10.902 6.264 10.668 6.144C10.488 6.048 8.94599 6.03 8.72999 6.12ZM10.392 7.362L10.62 7.584V8.814V10.044L10.398 10.272L10.176 10.5H9.67199C9.17999 10.5 9.16199 10.494 8.96399 10.296L8.75999 10.092V8.844V7.596L8.98199 7.368C9.20399 7.14 9.20999 7.14 9.68399 7.14C10.158 7.14 10.17 7.146 10.392 7.362Z" fill="white"/>
<path d="M12.654 6.15C12.366 6.312 12.354 6.402 12.372 8.928L12.39 11.274L12.528 11.412C12.66 11.55 12.684 11.55 14.346 11.568L16.026 11.586L16.2 11.406C16.482 11.13 16.434 10.746 16.098 10.572C16.014 10.524 15.552 10.5 14.706 10.5H13.44V8.466C13.44 6.438 13.44 6.426 13.308 6.276C13.14 6.084 12.864 6.03 12.654 6.15Z" fill="white"/>
<path d="M17.406 6.14402C17.112 6.31202 17.106 6.35402 17.1 8.80802C17.1 11.31 17.112 11.4 17.436 11.52C17.52 11.556 18.144 11.58 18.822 11.58H20.058L20.586 11.058L21.12 10.536V8.83202V7.12202L20.61 6.60602L20.106 6.09002L18.828 6.07802C17.844 6.06602 17.52 6.07802 17.406 6.14402ZM19.83 7.36202L20.034 7.59002L20.04 8.85602V10.116L19.842 10.308L19.638 10.506L18.924 10.488L18.21 10.47L18.192 8.88002C18.186 8.00402 18.192 7.26002 18.21 7.21802C18.228 7.15802 18.426 7.14002 18.93 7.14002H19.62L19.83 7.36202Z" fill="white"/>
<path d="M4.02 12.54C3.972 12.57 3.72 12.804 3.468 13.062L3 13.524V15.228V16.932L3.462 17.406C3.72 17.67 3.996 17.904 4.092 17.928C4.182 17.952 4.65 17.958 5.13 17.94L6 17.91L6.474 17.436C6.756 17.154 6.972 16.89 6.99 16.794C7.068 16.446 6.684 16.074 6.348 16.17C6.27 16.194 6.06 16.362 5.874 16.542L5.538 16.872H5.016C4.5 16.878 4.488 16.872 4.284 16.674L4.08 16.476V15.21V13.944L4.278 13.752C4.47 13.566 4.494 13.56 4.98 13.56H5.478L5.856 13.92C6.18 14.232 6.258 14.28 6.462 14.28C6.786 14.28 6.99 14.064 6.99 13.734C6.99 13.512 6.948 13.452 6.474 12.984L5.958 12.48H5.034C4.524 12.48 4.068 12.504 4.02 12.54Z" fill="white"/>
<path d="M8.56799 13.368L7.67999 14.256V15.936C7.67999 17.352 7.69199 17.634 7.76999 17.748C7.88999 17.916 8.19599 18 8.41799 17.922C8.70599 17.826 8.75999 17.622 8.75999 16.65V15.78H9.68999H10.62V16.698C10.62 17.718 10.656 17.838 10.998 17.928C11.256 18 11.502 17.904 11.61 17.694C11.736 17.454 11.742 14.472 11.616 14.232C11.568 14.142 11.166 13.71 10.722 13.272C9.62999 12.198 9.74399 12.192 8.56799 13.368ZM10.5 14.652C10.5 14.682 10.134 14.7 9.68999 14.7C9.24599 14.7 8.87999 14.682 8.87999 14.658C8.87999 14.634 9.05999 14.43 9.28199 14.208L9.68399 13.8L10.092 14.202C10.32 14.424 10.5 14.628 10.5 14.652Z" fill="white"/>
<path d="M12.534 12.654L12.36 12.828V15.174C12.36 16.788 12.384 17.562 12.426 17.664C12.522 17.874 12.81 18 13.044 17.934C13.374 17.844 13.44 17.694 13.44 17.064V16.5H13.782H14.124L14.82 17.184C15.6 17.958 15.744 18.042 16.05 17.916C16.284 17.814 16.38 17.664 16.38 17.4C16.38 17.244 16.302 17.124 15.948 16.764L15.522 16.32L15.948 15.876L16.38 15.432V14.49V13.542L15.858 13.014L15.336 12.48H14.022H12.708L12.534 12.654ZM15.102 13.752C15.3 13.944 15.3 13.95 15.3 14.496V15.048L15.09 15.234C14.874 15.42 14.874 15.42 14.16 15.42H13.44V14.49V13.56H14.172H14.904L15.102 13.752Z" fill="white"/>
<path d="M17.298 12.624L17.13 12.768V15.204V17.64L17.286 17.79L17.442 17.946H18.786L20.13 17.94L20.628 17.436L21.12 16.938V15.222V13.5L20.718 13.074C20.496 12.84 20.244 12.612 20.154 12.564C20.022 12.498 19.698 12.48 18.726 12.48C17.484 12.48 17.466 12.48 17.298 12.624ZM19.842 13.752L20.04 13.944V15.21V16.476L19.836 16.674C19.602 16.902 19.428 16.932 18.678 16.878L18.18 16.842V15.24C18.18 14.358 18.198 13.62 18.222 13.602C18.24 13.578 18.57 13.56 18.954 13.56H19.644L19.842 13.752Z" fill="white"/>
<path d="M22.11 18.354C22.092 18.39 22.092 18.45 22.116 18.492C22.146 18.54 22.128 18.546 22.062 18.522C21.906 18.462 21.888 18.57 22.032 18.696C22.104 18.762 22.14 18.774 22.11 18.726C22.074 18.66 22.086 18.648 22.17 18.678C22.254 18.714 22.266 18.696 22.242 18.6C22.218 18.498 22.224 18.486 22.296 18.546C22.422 18.648 22.398 18.516 22.266 18.396C22.194 18.33 22.14 18.312 22.11 18.354Z" fill="white"/>
<path d="M21.726 18.738C21.648 18.816 21.636 18.906 21.708 18.888C21.732 18.888 21.798 18.9 21.858 18.93C22.008 18.996 22.026 18.948 21.906 18.798C21.822 18.702 21.78 18.684 21.726 18.738Z" fill="white"/>
</svg>
