<svg width="24" height="24" viewBox="0 0 24 24" fill="none" xmlns="http://www.w3.org/2000/svg">
<path d="M7.90039 6.59998C7.95544 6.60019 8 6.64546 8 6.70056V6.80017H8.7998C8.91026 6.80017 9 6.88991 9 7.00037H21C21.5523 7.00037 22 7.44808 22 8.00037V16.0004C22 16.5527 21.5523 17.0004 21 17.0004H19C19 17.1108 18.9103 17.2006 18.7998 17.2006H17.2002C17.0897 17.2006 17 17.1108 17 17.0004H3C2.44772 17.0004 2 16.5527 2 16.0004V8.00037C2 7.44808 2.44772 7.00037 3 7.00037H6C6 6.88991 6.08974 6.80017 6.2002 6.80017H7V6.70056C7 6.64546 7.04456 6.60019 7.09961 6.59998H7.90039ZM4.5 9.00037C4.22386 9.00037 4 9.22422 4 9.50037V14.5004C4 14.7765 4.22386 15.0004 4.5 15.0004H11.5C11.7761 15.0004 12 14.7765 12 14.5004V9.50037C12 9.22422 11.7761 9.00037 11.5 9.00037H4.5Z" fill="white"/>
</svg>
